{
  "asset": {
    "generator": "cesiumlab",
    "version": "2.0"
  },
  "scenes": [
    {
      "nodes": [
        0
      ]
    }
  ],
  "scene": 0,
  "nodes": [
    {
      "mesh": 0
    }
  ],
  "meshes": [
    {
      "primitives": [
        {
          "attributes": {
            "NORMAL": 1,
            "POSITION": 2,
            "TEXCOORD_0": 3       
          },
          "indices": 0,
          "mode": 4,
          "material": 0
        },
        {
          "attributes": {
            "NORMAL": 6,
            "POSITION": 7,
            "TEXCOORD_0": 8        
          },
          "indices": 5,
          "mode": 4,
          "material": 1
        }
      ]
    }
  ],
  "accessors": [
    {
      "bufferView": 0,
      "byteOffset": 0,
      "componentType": 5123,
      "count": 129,
      "max": [
        202
      ],
      "min": [
        0
      ],
      "type": "SCALAR"
    },
    {
      "bufferView": 1,
      "byteOffset": 0,
      "componentType": 5126,
      "count": 294,
      "max": [
        1.0,
        0.8947078585624695,
        1.0
      ],
      "min": [
        -1.0,
        -0.8995081186294556,
        -1.0
      ],
      "type": "VEC3"
    },
    {
      "bufferView": 2,
      "byteOffset": 0,
      "componentType": 5126,
      "count": 294,
      "max": [
        7070.44970703125,
        6790.49072265625,
        1313.26611328125
      ],
      "min": [
        -7070.44970703125,
        -4954.94482421875,
        -1519.234375
      ],
      "type": "VEC3"
    },
    {
      "bufferView": 3,
      "byteOffset": 0,
      "componentType": 5126,
      "count": 294,
      "max": [
        9.291604995727539,
        4.480813503265381
      ],
      "min": [
        -7.342465400695801,
        -11.092815399169922
      ],
      "type": "VEC2"
    },
    {
      "bufferView": 4,
      "byteOffset": 0,
      "componentType": 5123,
      "count": 294,
      "max": [
        2
      ],
      "min": [
        0
      ],
      "type": "SCALAR"
    },
    {
      "bufferView": 5,
      "byteOffset": 0,
      "componentType": 5123,
      "count": 447,
      "max": [
        293
      ],
      "min": [
        11
      ],
      "type": "SCALAR"
    },
    {
      "bufferView": 6,
      "byteOffset": 0,
      "componentType": 5126,
      "count": 294,
      "max": [
        1.0,
        0.8947078585624695,
        1.0
      ],
      "min": [
        -1.0,
        -0.8995081186294556,
        -1.0
      ],
      "type": "VEC3"
    },
    {
      "bufferView": 7,
      "byteOffset": 0,
      "componentType": 5126,
      "count": 294,
      "max": [
        7070.44970703125,
        6790.49072265625,
        1313.26611328125
      ],
      "min": [
        -7070.44970703125,
        -4954.94482421875,
        -1519.234375
      ],
      "type": "VEC3"
    },
    {
      "bufferView": 8,
      "byteOffset": 0,
      "componentType": 5126,
      "count": 294,
      "max": [
        7.342465400695801,
        2.52107310295105
      ],
      "min": [
        -9.291604995727539,
        -9.235766410827637
      ],
      "type": "VEC2"
    },
    {
      "bufferView": 9,
      "byteOffset": 0,
      "componentType": 5123,
      "count": 294,
      "max": [
        2
      ],
      "min": [
        0
      ],
      "type": "SCALAR"
    }
  ],
  "materials": [
    {
      "pbrMetallicRoughness": {
        "baseColorFactor": [
          0.8235294222831726,
          0.8235294222831726,
          0.8235294222831726,
          1.0
        ],
        "baseColorTexture": {
          "index": 0,
          "texCoord": 0
        },
        "metallicFactor": 0.0,
        "roughnessFactor": 0.800000011920929
      },
      "doubleSided": true
    },
    {
      "pbrMetallicRoughness": {
        "baseColorFactor": [
          0.49803921580314639,
          0.49803921580314639,
          0.49803921580314639,
          1.0
        ],
        "baseColorTexture": {
          "index": 1,
          "texCoord": 0
        },
        "metallicFactor": 0.0,
        "roughnessFactor": 0.800000011920929
      },
      "doubleSided": true
    }
  ],
  "textures": [
    {
      "sampler": 0,
      "source": 0
    },
    {
      "sampler": 1,
      "source": 1
    }
  ],
  "images": [
    {
      "uri": "01.jpg"
    },
    {
      "uri": "01.jpg"
    }
  ],
  "samplers": [
    {
      "magFilter": 9729,
      "minFilter": 9987,
      "wrapS": 10497,
      "wrapT": 10497
    },
    {
      "magFilter": 9729,
      "minFilter": 9987,
      "wrapS": 10497,
      "wrapT": 10497
    }
  ],
  "bufferViews": [
    {
      "buffer": 0,
      "byteOffset": 0,
      "byteLength": 258,
      "target": 34963
    },
    {
      "buffer": 1,
      "byteOffset": 0,
      "byteLength": 3528,
      "target": 34962
    },
    {
      "buffer": 2,
      "byteOffset": 0,
      "byteLength": 3528,
      "target": 34962
    },
    {
      "buffer": 3,
      "byteOffset": 0,
      "byteLength": 2352,
      "target": 34962
    },
    {
      "buffer": 4,
      "byteOffset": 0,
      "byteLength": 588,
      "target": 34962
    },
    {
      "buffer": 5,
      "byteOffset": 0,
      "byteLength": 894,
      "target": 34963
    },
    {
      "buffer": 6,
      "byteOffset": 0,
      "byteLength": 3528,
      "target": 34962
    },
    {
      "buffer": 7,
      "byteOffset": 0,
      "byteLength": 3528,
      "target": 34962
    },
    {
      "buffer": 8,
      "byteOffset": 0,
      "byteLength": 2352,
      "target": 34962
    },
    {
      "buffer": 9,
      "byteOffset": 0,
      "byteLength": 588,
      "target": 34962
    }
  ],
  "buffers": [
    {
      "byteLength": 258,
      "uri": "data:application/octet-stream;base64,"
    },
    {
      "byteLength": 3528,
      "uri": "data:application/octet-stream;base64,"
    },
    {
      "byteLength": 3528,
      "uri": "data:application/octet-stream;base64,"
    },
    {
      "byteLength": 2352,
      "uri": "data:application/octet-stream;base64,"
    },
    {
      "byteLength": 588,
      "uri": "data:application/octet-stream;base64,"
    },
    {
      "byteLength": 894,
      "uri": "data:application/octet-stream;base64,"
    },
    {
      "byteLength": 3528,
      "uri": "data:application/octet-stream;base64,"
    },
    {
      "byteLength": 3528,
      "uri": "data:application/octet-stream;base64,"
    },
    {
      "byteLength": 2352,
      "uri": "data:application/octet-stream;base64,"
    },
    {
      "byteLength": 588,
      "uri": "data:application/octet-stream;base64,"
    }
  ]
}